<svg xmlns="http://www.w3.org/2000/svg" height="24" viewBox="0 96 960 960" width="24"><path d="M240 976q-33 0-56.5-23.5T160 896V416q0-56 34-98t86-56v-26q0-25 17.5-42.5T340 176q25 0 42.5 17.5T400 236v20h160v-20q0-25 17.5-42.5T620 176q25 0 42.5 17.5T680 236v26q52 14 86 56t34 98v480q0 33-23.5 56.5T720 976H240Zm0-80h480V416q0-33-23.5-56.5T640 336H320q-33 0-56.5 23.5T240 416v480Zm380-160q17 0 28.5-11.5T660 696v-80q0-17-11.5-28.5T620 576H340q-17 0-28.5 11.5T300 616q0 17 11.5 28.5T340 656h240v40q0 17 11.5 28.5T620 736ZM480 616Z"/></svg>