<?xml version="1.0" encoding="UTF-8" standalone="no"?><!DOCTYPE svg PUBLIC "-//W3C//DTD SVG 1.1//EN" "http://www.w3.org/Graphics/SVG/1.1/DTD/svg11.dtd"><svg width="24px" height="24px" version="1.1" xmlns="http://www.w3.org/2000/svg" xmlns:xlink="http://www.w3.org/1999/xlink" xml:space="preserve" xmlns:serif="http://www.serif.com/" style="fill-rule:evenodd;clip-rule:evenodd;stroke-linejoin:round;stroke-miterlimit:2;"><g id="info.svg" transform="matrix(1,0,0,1,12,12)"><g transform="matrix(1,0,0,1,-12,-12)"><path d="M12,22C10.617,22 9.317,21.738 8.1,21.212C6.883,20.688 5.825,19.975 4.925,19.075C4.025,18.175 3.313,17.117 2.788,15.9C2.263,14.683 2,13.383 2,12C2,10.617 2.263,9.317 2.788,8.1C3.313,6.883 4.025,5.825 4.925,4.925C5.825,4.025 6.883,3.313 8.1,2.787C9.317,2.263 10.617,2 12,2C13.383,2 14.683,2.263 15.9,2.787C17.117,3.313 18.175,4.025 19.075,4.925C19.975,5.825 20.688,6.883 21.213,8.1C21.738,9.317 22,10.617 22,12C22,13.383 21.738,14.683 21.213,15.9C20.688,17.117 19.975,18.175 19.075,19.075C18.175,19.975 17.117,20.688 15.9,21.212C14.683,21.738 13.383,22 12,22ZM12,20C14.217,20 16.104,19.221 17.663,17.663C19.221,16.104 20,14.217 20,12C20,9.783 19.221,7.896 17.663,6.338C16.104,4.779 14.217,4 12,4C9.783,4 7.896,4.779 6.338,6.338C4.779,7.896 4,9.783 4,12C4,14.217 4.779,16.104 6.338,17.663C7.896,19.221 9.783,20 12,20Z" style="fill-rule:nonzero;"/></g></g><g transform="matrix(0.01,0,0,0.01,0,0)"><path d="M1889.6,992.936C2003.66,1374.18 1786.85,1775.66 1405.35,1889.61C1023.81,2003.61 622.068,1786.95 507.967,1405.7C493.383,1356.88 484.025,1306.7 480,1255.93C588.878,1215.44 690.809,1143.35 806.648,1134.5C937.348,1124.46 1066.56,1179.27 1198.78,1171.19C1338.96,1162.67 1359.14,1063.49 1450.5,1005C1513.85,964.408 1604.7,926.239 1708.18,944.846L1889.6,992.936ZM1102.05,1644.05L1102.05,1744.45C1102.05,1772.21 1111.43,1795.06 1130.21,1813.02C1148.98,1830.98 1172.25,1839.96 1200,1839.96C1227.75,1839.96 1251.02,1830.57 1269.79,1811.8C1288.57,1793.02 1297.95,1769.76 1297.95,1742L1297.95,1644.05L1398.36,1644.05C1426.11,1644.05 1448.97,1634.66 1466.93,1615.89C1484.88,1597.11 1493.86,1573.85 1493.86,1546.1C1493.86,1518.34 1484.48,1495.08 1465.7,1476.3C1446.93,1457.53 1423.66,1448.14 1395.91,1448.14L1297.95,1448.14L1297.95,1347.74C1297.95,1319.98 1288.57,1297.13 1269.79,1279.17C1251.02,1261.21 1227.75,1252.23 1200,1252.23C1172.25,1252.23 1148.98,1261.62 1130.21,1280.39C1111.43,1299.17 1102.05,1322.43 1102.05,1350.18L1102.05,1448.14L1001.64,1448.14C973.888,1448.14 951.032,1457.53 933.073,1476.3C915.115,1495.08 906.136,1518.34 906.136,1546.1C906.136,1573.85 915.523,1597.11 934.298,1615.89C953.072,1634.66 976.337,1644.05 1004.09,1644.05L1102.05,1644.05Z"/></g></svg>