<svg xmlns="http://www.w3.org/2000/svg" height="24" viewBox="0 96 960 960" width="24"><path d="M440 696v80q0 17 11.5 28.5T480 816q17 0 28.5-11.5T520 776v-80h80q17 0 28.5-11.5T640 656q0-17-11.5-28.5T600 616h-80v-80q0-17-11.5-28.5T480 496q-17 0-28.5 11.5T440 536v80h-80q-17 0-28.5 11.5T320 656q0 17 11.5 28.5T360 696h80ZM160 976q-33 0-56.5-23.5T80 896V416q0-33 23.5-56.5T160 336h160v-80q0-33 23.5-56.5T400 176h160q33 0 56.5 23.5T640 256v80h160q33 0 56.5 23.5T880 416v480q0 33-23.5 56.5T800 976H160Zm240-640h160v-80H400v80ZM160 896h640V416H160v480Zm0 0V416v480Z"/></svg>