<svg xmlns="http://www.w3.org/2000/svg" height="24" viewBox="0 96 960 960" width="24"><path d="M40 816q-17 0-28.5-11.5T0 776v-23q0-44 44-70.5T160 656q13 0 24.5 1t22.5 3q-14 20-20.5 43t-6.5 49v64H40Zm240 0q-17 0-28.5-11.5T240 776v-24q0-65 66.5-105.5T480 606q108 0 174 40.5T720 752v24q0 17-11.5 28.5T680 816H280Zm500 0v-64q0-26-7-49t-20-43q11-2 22.5-3t24.5-1q72 0 116 26.5t44 70.5v23q0 17-11.5 28.5T920 816H780ZM480 686q-57 0-102 15.5T325 736h310q-9-20-53.5-35T480 686Zm-320-70q-33 0-56.5-23.5T80 536q0-33 23.5-56.5T160 456q33 0 56.5 23.5T240 536q0 33-23.5 56.5T160 616Zm640 0q-33 0-56.5-23.5T720 536q0-33 23.5-56.5T800 456q33 0 56.5 23.5T880 536q0 33-23.5 56.5T800 616Zm-320-40q-50 0-85-35t-35-85q0-50 35-85t85-35q50 0 85 35t35 85q0 50-35 85t-85 35Zm0-160q-17 0-28.5 11.5T440 456q0 17 11.5 28.5T480 496q17 0 28.5-11.5T520 456q0-17-11.5-28.5T480 416Zm0 320Zm0-280Z"/></svg>