<svg xmlns="http://www.w3.org/2000/svg" height="24" viewBox="0 96 960 960" width="24"><path d="M500 1056q-142 0-241-99t-99-241V376q0-42 29-71t71-29q5 0 10 .5t10 1.5v-22q0-42 29-71t71-29q7 0 13.5 1t13.5 3q11-29 36-46.5T500 96q37 0 64.5 23.5T598 178q5-1 10.5-1.5t11.5-.5q42 0 71 29t29 71v142q5-1 10-1.5t10-.5q42 0 71 29t29 71v200q0 142-99 241t-241 99Zm0-80q54 0 101.5-20.5T684 900q35-35 55.5-82.5T760 716V516q0-8-6-14t-14-6q-8 0-14 6t-6 14v117q0 25-12 43.5T669 708q-23 11-39.5 30T605 781q-5 16-16.5 25.5T563 816q-19 0-30.5-13t-7.5-30q11-48 41-84.5t74-55.5V276q0-8-6-14t-14-6q-8 0-14 6t-6 14v220q0 17-11.5 28.5T560 536q-17 0-28.5-11.5T520 496V196q0-8-6-14t-14-6q-8 0-14 6t-6 14v300q0 17-11.5 28.5T440 536q-17 0-28.5-11.5T400 496V256q0-8-6-14t-14-6q-8 0-14 6t-6 14v280q0 17-11.5 28.5T320 576q-17 0-28.5-11.5T280 536V376q0-8-6-14t-14-6q-8 0-14 6t-6 14v340q0 54 20.5 101.5T316 900q35 35 82.5 55.5T500 976Z"/></svg>