<svg xmlns="http://www.w3.org/2000/svg" height="24" viewBox="0 96 960 960" width="24"><path d="M520 1016q-17 0-28.5-11.5T480 976q0-17 11.5-28.5T520 936h240v-40h-80q-33 0-56.5-23.5T600 816V656q0-33 23.5-56.5T680 576h80v-40q0-116-82-198t-198-82q-116 0-198 82t-82 198v40h80q33 0 56.5 23.5T360 656v160q0 33-23.5 56.5T280 896h-80q-33 0-56.5-23.5T120 816V536q0-74 28.5-139.5T226 282q49-49 114.5-77.5T480 176q74 0 139.5 28.5T734 282q49 49 77.5 114.5T840 536v400q0 33-23.5 56.5T760 1016H520ZM200 816h80V656h-80v160Zm480 0h80V656h-80v160Zm-480 0h80-80Zm480 0h80-80Z"/></svg>