<svg xmlns="http://www.w3.org/2000/svg" height="24" viewBox="0 96 960 960" width="24"><path d="M480 776q17 0 28.5-11.5T520 736V575q0-17-11.5-28T480 536q-17 0-28.5 11.5T440 576v161q0 17 11.5 28t28.5 11Zm0-320q17 0 28.5-11.5T520 416q0-17-11.5-28.5T480 376q-17 0-28.5 11.5T440 416q0 17 11.5 28.5T480 456Zm0 520q-83 0-156-31.5T197 859q-54-54-85.5-127T80 576q0-83 31.5-156T197 293q54-54 127-85.5T480 176q83 0 156 31.5T763 293q54 54 85.5 127T880 576q0 83-31.5 156T763 859q-54 54-127 85.5T480 976Zm0-400Zm0 320q133 0 226.5-93.5T800 576q0-133-93.5-226.5T480 256q-133 0-226.5 93.5T160 576q0 133 93.5 226.5T480 896Z"/></svg>