<svg xmlns="http://www.w3.org/2000/svg" height="24" viewBox="0 96 960 960" width="24"><path d="M280 776q-83 0-141.5-58.5T80 576q0-83 58.5-141.5T280 376h120q17 0 28.5 11.5T440 416q0 17-11.5 28.5T400 456H280q-50 0-85 35t-35 85q0 50 35 85t85 35h120q17 0 28.5 11.5T440 736q0 17-11.5 28.5T400 776H280Zm80-160q-17 0-28.5-11.5T320 576q0-17 11.5-28.5T360 536h240q17 0 28.5 11.5T640 576q0 17-11.5 28.5T600 616H360Zm200 160q-17 0-28.5-11.5T520 736q0-17 11.5-28.5T560 696h120q50 0 85-35t35-85q0-50-35-85t-85-35H560q-17 0-28.5-11.5T520 416q0-17 11.5-28.5T560 376h120q83 0 141.5 58.5T880 576q0 83-58.5 141.5T680 776H560Z"/></svg>