<svg xmlns="http://www.w3.org/2000/svg" height="24" viewBox="0 96 960 960" width="24"><path d="M480 656q-50 0-85-35t-35-85V296q0-50 35-85t85-35q50 0 85 35t35 85v240q0 50-35 85t-85 35Zm0-240Zm0 520q-17 0-28.5-11.5T440 896v-83q-93-13-158-78t-79-156q-3-17 9-30t32-13q14 0 25 10.5t14 25.5q13 70 68 117t129 47q74 0 129-47t68-117q3-15 14.5-25.5T717 536q19 0 31 13t9 30q-14 91-79 156t-158 78v83q0 17-11.5 28.5T480 936Zm0-360q17 0 28.5-11.5T520 536V296q0-17-11.5-28.5T480 256q-17 0-28.5 11.5T440 296v240q0 17 11.5 28.5T480 576Z"/></svg>