<svg xmlns="http://www.w3.org/2000/svg" height="24" viewBox="0 96 960 960" width="24"><path d="M380 256h-21q-10 0-19 2 57 66 88.5 147.5T460 576q0 89-31.5 170.5T340 894q9 2 19 2h21q133 0 226.5-93.5T700 576q0-133-93.5-226.5T380 256Zm400 320q0 83-31.5 156T663 859q-54 54-127 85.5T380 976q-32 0-67-6t-67-17q-12-5-19-15.5t-7-23.5q0-9 3.5-17t10.5-13q71-59 108.5-139.5T380 576q0-88-37.5-168.5T234 268q-7-5-10.5-13t-3.5-17q0-13 7-23.5t19-15.5q32-11 67-17t67-6q83 0 156 31.5T663 293q54 54 85.5 127T780 576Zm-320 0Z"/></svg>