<svg xmlns="http://www.w3.org/2000/svg" height="24" viewBox="0 96 960 960" width="24"><path d="M480 776q17 0 28.5-11.5T520 736V576q0-17-11.5-28.5T480 536q-17 0-28.5 11.5T440 576v160q0 17 11.5 28.5T480 776Zm0-320q17 0 28.5-11.5T520 416q0-17-11.5-28.5T480 376q-17 0-28.5 11.5T440 416q0 17 11.5 28.5T480 456Zm0 517h-10q-5 0-9-2-131-41-216-162.5T160 540V351q0-25 14.5-45t37.5-29l240-90q14-5 28-5t28 5l240 90q23 9 37.5 29t14.5 45v189q0 147-85 268.5T499 971q-5 2-19 2Zm0-81q104-33 172-132t68-220V351l-240-90-240 90v189q0 121 68 220t172 132Zm0-316Z"/></svg>