<svg xmlns="http://www.w3.org/2000/svg" height="24" viewBox="0 96 960 960" width="24"><path d="M680 936q-33 0-56.5-23.5T600 856v-40h-80q-33 0-56.5-23.5T440 736V416h-80v40q0 33-23.5 56.5T280 536H160q-33 0-56.5-23.5T80 456V296q0-33 23.5-56.5T160 216h120q33 0 56.5 23.5T360 296v40h240v-40q0-33 23.5-56.5T680 216h120q33 0 56.5 23.5T880 296v160q0 33-23.5 56.5T800 536H680q-33 0-56.5-23.5T600 456v-40h-80v320h80v-40q0-33 23.5-56.5T680 616h120q33 0 56.5 23.5T880 696v160q0 33-23.5 56.5T800 936H680ZM160 296v160-160Zm520 400v160-160Zm0-400v160-160Zm0 160h120V296H680v160Zm0 400h120V696H680v160ZM160 456h120V296H160v160Z"/></svg>