<?xml version="1.0" encoding="UTF-8" standalone="no"?>
<!DOCTYPE svg PUBLIC "-//W3C//DTD SVG 1.1//EN" "http://www.w3.org/Graphics/SVG/1.1/DTD/svg11.dtd">
<svg width="24px" height="24px" version="1.1" xmlns="http://www.w3.org/2000/svg" xmlns:xlink="http://www.w3.org/1999/xlink" xml:space="preserve" xmlns:serif="http://www.serif.com/" style="fill-rule:evenodd;clip-rule:evenodd;stroke-linejoin:round;stroke-miterlimit:2;">
    <path d="M18.99,19.994C18.707,19.994 18.469,19.898 18.278,19.707C18.086,19.515 17.99,19.278 17.99,18.994L18,5C18,4.717 18.096,4.479 18.288,4.288C18.479,4.096 18.717,4 19,4C19.283,4 19.521,4.096 19.713,4.288C19.904,4.479 20,4.717 20,5L19.99,18.994C19.99,19.278 19.894,19.515 19.703,19.707C19.511,19.898 19.273,19.994 18.99,19.994ZM5,20C4.717,20 4.479,19.904 4.288,19.712C4.096,19.521 4,19.283 4,19L4,5C4,4.717 4.096,4.479 4.288,4.288C4.479,4.096 4.717,4 5,4C5.283,4 5.521,4.096 5.713,4.288C5.904,4.479 6,4.717 6,5L6,19C6,19.283 5.904,19.521 5.713,19.712C5.521,19.904 5.283,20 5,20ZM12,8C11.717,8 11.479,7.904 11.288,7.713C11.096,7.521 11,7.283 11,7L11,5C11,4.717 11.096,4.479 11.288,4.288C11.479,4.096 11.717,4 12,4C12.283,4 12.521,4.096 12.713,4.288C12.904,4.479 13,4.717 13,5L13,7C13,7.283 12.904,7.521 12.713,7.713C12.521,7.904 12.283,8 12,8ZM12,14C11.717,14 11.479,13.904 11.288,13.713C11.096,13.521 11,13.283 11,13L11,11C11,10.717 11.096,10.479 11.288,10.288C11.479,10.096 11.717,10 12,10C12.283,10 12.521,10.096 12.713,10.288C12.904,10.479 13,10.717 13,11L13,13C13,13.283 12.904,13.521 12.713,13.713C12.521,13.904 12.283,14 12,14ZM12,20C11.717,20 11.479,19.904 11.288,19.712C11.096,19.521 11,19.283 11,19L11,17C11,16.717 11.096,16.479 11.288,16.288C11.479,16.096 11.717,16 12,16C12.283,16 12.521,16.096 12.713,16.288C12.904,16.479 13,16.717 13,17L13,19C13,19.283 12.904,19.521 12.713,19.712C12.521,19.904 12.283,20 12,20Z" style="fill-rule:nonzero;"/>
</svg>
