<?xml version="1.0" encoding="UTF-8" standalone="no"?><!DOCTYPE svg PUBLIC "-//W3C//DTD SVG 1.1//EN" "http://www.w3.org/Graphics/SVG/1.1/DTD/svg11.dtd"><svg width="360px" height="360px" version="1.1" xmlns="http://www.w3.org/2000/svg" xmlns:xlink="http://www.w3.org/1999/xlink" xml:space="preserve" xmlns:serif="http://www.serif.com/" style="fill-rule:evenodd;clip-rule:evenodd;stroke-linejoin:round;stroke-miterlimit:2;"><g transform="matrix(0.677058,0,0,0.677052,-0.00033802,-0.19179)"><path d="M453.846,78.152C557.668,181.977 557.668,350.305 453.846,454.133C350.023,557.956 181.69,557.956 77.867,454.133C-25.955,350.305 -25.955,181.977 77.867,78.152C181.69,-25.673 350.023,-25.673 453.846,78.152Z" style="fill:white;"/></g><g transform="matrix(0.66284,0,0,0.662834,3.77967,3.59224)"><path d="M453.846,78.152C557.668,181.977 557.668,350.305 453.846,454.133C350.023,557.956 181.69,557.956 77.867,454.133C-25.955,350.305 -25.955,181.977 77.867,78.152C181.69,-25.673 350.023,-25.673 453.846,78.152Z" style="fill:rgb(69,153,69);"/><path d="M453.846,78.152C557.668,181.977 557.668,350.305 453.846,454.133C350.023,557.956 181.69,557.956 77.867,454.133C-25.955,350.305 -25.955,181.977 77.867,78.152C181.69,-25.673 350.023,-25.673 453.846,78.152Z" style="fill:rgb(59,138,65);fill-rule:nonzero;"/><path d="M407.989,123.055C486.836,201.901 486.836,329.74 407.989,408.588C329.141,487.445 201.304,487.445 122.447,408.588C43.603,329.74 43.603,201.901 122.447,123.055C201.304,44.206 329.141,44.206 407.989,123.055Z" style="fill:white;"/><path d="M407.989,123.055C486.836,201.901 486.836,329.74 407.989,408.588C329.141,487.436 201.304,487.436 122.447,408.588C43.603,329.74 43.603,201.901 122.447,123.055C201.304,44.206 329.141,44.206 407.989,123.055Z" style="fill:white;fill-rule:nonzero;"/><path d="M453.163,209.63C484.196,313.429 425.208,422.738 321.416,453.762C217.611,484.8 108.311,425.811 77.268,322.012C73.3,308.72 70.754,295.056 69.659,281.233C99.281,270.209 127.013,250.582 158.529,248.172C194.088,245.44 229.241,260.362 265.215,258.162C303.352,255.843 308.843,228.84 333.698,212.914C350.935,201.863 375.651,191.471 403.806,196.537L453.163,209.63Z" style="fill:rgb(69,153,69);"/><path d="M453.163,209.63C484.196,313.429 425.208,422.738 321.416,453.762C217.611,484.8 108.311,425.811 77.268,322.012C73.3,308.72 70.754,295.056 69.659,281.233C99.281,270.209 127.013,250.582 158.529,248.172C194.088,245.44 229.241,260.362 265.215,258.162C303.352,255.843 308.843,228.84 333.698,212.914C350.935,201.863 375.651,191.471 403.806,196.537L453.163,209.63Z" style="fill:rgb(59,138,65);fill-rule:nonzero;"/><path d="M194.428,436.133C156.125,397.825 156.125,335.727 194.428,297.416C232.734,259.12 294.836,259.12 333.139,297.416C371.437,335.727 371.437,397.825 333.139,436.133C294.836,474.43 232.734,474.43 194.428,436.133Z" style="fill:white;"/><path d="M194.428,436.133C156.125,397.825 156.125,335.727 194.428,297.416C232.734,259.12 294.836,259.12 333.139,297.416C371.437,335.727 371.437,397.825 333.139,436.133C294.836,474.43 232.734,474.43 194.428,436.133Z" style="fill:white;fill-rule:nonzero;"/><path d="M241.299,278.289C225.868,282.194 211.24,290.08 199.164,302.147C187.587,313.727 179.845,327.649 175.779,342.371L241.299,342.371L241.299,278.289ZM290.101,279.276L290.101,342.371L351.792,342.371C347.722,327.649 339.97,313.727 328.408,302.147C317.336,291.081 304.112,283.476 290.101,279.276ZM176.288,393.09C180.488,407.105 188.092,420.325 199.164,431.396C211.24,443.464 225.868,451.358 241.299,455.25L241.299,393.09L176.288,393.09ZM290.101,393.09L290.101,454.299C304.112,450.094 317.336,442.468 328.408,431.396C339.479,420.316 347.115,407.105 351.31,393.09L290.101,393.09Z" style="fill:rgb(238,39,67);"/><path d="M241.299,278.289C225.868,282.194 211.24,290.08 199.164,302.147C187.587,313.727 179.845,327.649 175.779,342.371L241.299,342.371L241.299,278.289ZM290.101,279.276L290.101,342.371L351.792,342.371C347.722,327.649 339.97,313.727 328.408,302.147C317.336,291.081 304.112,283.476 290.101,279.276ZM176.288,393.09C180.488,407.105 188.092,420.325 199.164,431.396C211.24,443.464 225.868,451.358 241.299,455.25L241.299,393.09L176.288,393.09ZM290.101,393.09L290.101,454.299C304.112,450.094 317.336,442.468 328.408,431.396C339.479,420.316 347.115,407.105 351.31,393.09L290.101,393.09Z" style="fill:rgb(231,28,53);fill-rule:nonzero;"/><path d="M61.917,384.697L64.248,394.618C61.553,395.421 59.057,395.671 56.764,395.369C54.47,395.068 52.397,394.248 50.543,392.907C48.689,391.567 46.954,389.5 45.337,386.706C43.378,383.316 42.27,380.262 42.011,377.545C41.754,374.827 42.414,371.971 43.992,368.976C45.57,365.981 48.293,363.366 52.162,361.129C57.321,358.145 62.079,357.225 66.436,358.367C70.794,359.508 74.425,362.589 77.328,367.609C79.599,371.537 80.591,375.085 80.303,378.251C80.014,381.417 78.54,384.498 75.882,387.493L69.068,380.079C69.846,379.231 70.361,378.517 70.612,377.937C71.038,376.971 71.223,375.984 71.169,374.974C71.115,373.965 70.81,372.977 70.252,372.013C68.988,369.83 67.143,368.664 64.713,368.517C62.902,368.391 60.602,369.136 57.811,370.749C54.355,372.748 52.289,374.642 51.614,376.433C50.939,378.224 51.151,380.069 52.251,381.971C53.316,383.813 54.641,384.907 56.221,385.252C57.802,385.596 59.7,385.411 61.917,384.697Z" style="fill:white;fill-rule:nonzero;"/><path d="M82.952,415.585L90.573,404.385L78.006,409.411L82.952,415.585ZM78.317,422.258L70.415,412.394L64.676,414.742L57.569,405.873L94.149,393.915L101.742,403.39L82.092,436.479L74.803,427.382L78.317,422.258Z" style="fill:white;fill-rule:nonzero;"/><path d="M111.814,415.734L122.731,425.488L112.339,445.596L131.122,432.983L142.032,442.73L118.032,469.596L111.234,463.521L129.535,443.034L105.996,458.843L99.841,453.345L112.915,428.185L94.612,448.674L87.814,442.6L111.814,415.734Z" style="fill:white;fill-rule:nonzero;"/><path d="M149.157,463.943L153.278,466.483C154.756,467.394 155.943,467.773 156.835,467.621C157.726,467.469 158.47,466.911 159.063,465.949C159.613,465.056 159.753,464.181 159.484,463.323C159.214,462.464 158.361,461.591 156.925,460.706L152.741,458.128L149.157,463.943ZM141.732,475.993L146.563,478.971C148.195,479.976 149.524,480.396 150.55,480.23C151.576,480.064 152.391,479.493 152.992,478.516C153.551,477.61 153.668,476.677 153.345,475.718C153.022,474.759 152.031,473.767 150.372,472.745L145.56,469.78L141.732,475.993ZM147.01,446.023L164.75,456.956C167.706,458.778 169.524,460.908 170.205,463.348C170.885,465.788 170.56,468.09 169.228,470.251C168.111,472.064 166.588,473.27 164.658,473.872C163.372,474.272 161.849,474.276 160.089,473.885C161.966,475.772 163.027,477.681 163.27,479.612C163.515,481.542 163.035,483.484 161.832,485.436C160.853,487.026 159.601,488.228 158.081,489.042C156.559,489.855 154.928,490.236 153.191,490.184C152.112,490.154 150.705,489.75 148.973,488.971C146.667,487.935 145.166,487.202 144.469,486.772L128.11,476.69L147.01,446.023Z" style="fill:white;fill-rule:nonzero;"/><path d="M184.732,483.234L189.1,484.954C189.572,485.14 190.546,485.347 192.023,485.577C192.764,485.71 193.461,485.58 194.118,485.186C194.775,484.795 195.247,484.232 195.535,483.5C195.96,482.418 195.945,481.452 195.487,480.603C195.029,479.754 193.856,478.957 191.965,478.213L187.416,476.421L184.732,483.234ZM166.478,499.076L179.677,465.556L196.939,472.354C200.14,473.614 202.479,474.852 203.955,476.066C205.431,477.282 206.394,478.837 206.846,480.73C207.297,482.625 207.103,484.639 206.263,486.773C205.53,488.633 204.501,490.081 203.177,491.118C201.854,492.154 200.332,492.819 198.614,493.11C197.52,493.297 196.132,493.261 194.454,493.005C195.526,493.902 196.262,494.669 196.665,495.303C196.937,495.726 197.258,496.531 197.627,497.717C197.996,498.901 198.206,499.787 198.257,500.37L199.449,512.057L187.747,507.45L186.242,495.026C186.063,493.425 185.778,492.317 185.385,491.705C184.842,490.892 184.099,490.301 183.153,489.928L182.238,489.568L176.882,503.172L166.478,499.076Z" style="fill:white;fill-rule:nonzero;"/><path d="M216.037,478.541L226.905,481.059L218.772,516.153L207.905,513.635L216.037,478.541Z" style="fill:white;fill-rule:nonzero;"/><path d="M244.345,491.858L242.915,511.49L245.636,511.688C247.955,511.857 249.625,511.72 250.642,511.276C251.66,510.833 252.494,509.99 253.142,508.748C253.792,507.507 254.221,505.448 254.43,502.572C254.708,498.764 254.276,496.114 253.138,494.618C251.998,493.123 249.99,492.27 247.115,492.06L244.345,491.858ZM233.835,482.914L250.33,484.115C253.582,484.351 256.174,484.984 258.113,486.012C260.049,487.041 261.612,488.427 262.799,490.173C263.985,491.918 264.793,493.907 265.222,496.139C265.65,498.371 265.776,500.713 265.597,503.164C265.318,507.004 264.664,509.949 263.635,512.001C262.607,514.054 261.265,515.737 259.608,517.054C257.952,518.371 256.216,519.202 254.401,519.546C251.918,520.021 249.689,520.187 247.712,520.044L231.219,518.843L233.835,482.914Z" style="fill:white;fill-rule:nonzero;"/><path d="M292.168,505.571L291.197,498.139L308.253,495.911L310.243,511.14C307.268,513.792 304.579,515.684 302.173,516.815C299.769,517.948 296.845,518.739 293.402,519.189C289.162,519.742 285.611,519.471 282.75,518.375C279.889,517.278 277.538,515.396 275.693,512.729C273.85,510.062 272.687,506.877 272.203,503.174C271.693,499.274 272.054,495.779 273.286,492.685C274.517,489.593 276.586,487.096 279.495,485.196C281.763,483.726 284.945,482.724 289.04,482.189C292.986,481.674 295.985,481.645 298.036,482.104C300.087,482.563 301.856,483.46 303.343,484.794C304.832,486.128 306.049,487.906 307,490.127L296.601,493.419C295.988,492.128 295.109,491.193 293.967,490.615C292.827,490.038 291.444,489.854 289.82,490.067C287.399,490.384 285.581,491.475 284.363,493.345C283.145,495.214 282.773,497.968 283.249,501.606C283.754,505.472 284.841,508.138 286.511,509.606C288.181,511.073 290.317,511.637 292.916,511.297C294.149,511.136 295.304,510.804 296.379,510.3C297.453,509.796 298.656,509.019 299.99,507.969L299.55,504.606L292.168,505.571Z" style="fill:white;fill-rule:nonzero;"/><path d="M311.406,479.026L339.809,469.907L342.161,477.23L324.378,482.939L326.129,488.39L342.623,483.095L344.87,490.09L328.375,495.387L330.545,502.148L348.843,496.273L351.335,504.041L322.418,513.327L311.406,479.026Z" style="fill:white;fill-rule:nonzero;"/><path d="M354.085,490.089L363.249,484.735C364.227,486.169 365.234,487.13 366.267,487.617C367.947,488.405 369.738,488.319 371.64,487.362C373.059,486.648 373.986,485.764 374.418,484.712C374.852,483.66 374.848,482.694 374.406,481.816C373.986,480.982 373.245,480.42 372.181,480.13C371.119,479.84 369.109,480.072 366.15,480.827C361.296,482.041 357.531,482.303 354.856,481.614C352.166,480.931 350.187,479.333 348.921,476.815C348.087,475.162 347.781,473.358 347.999,471.405C348.217,469.453 349.078,467.571 350.579,465.762C352.08,463.952 354.505,462.204 357.857,460.517C361.969,458.448 365.49,457.636 368.417,458.078C371.345,458.521 373.853,460.307 375.942,463.438L366.845,468.703C365.867,467.38 364.814,466.59 363.686,466.333C362.555,466.075 361.29,466.3 359.884,467.007C358.728,467.589 357.981,468.272 357.642,469.056C357.303,469.842 357.311,470.585 357.665,471.288C357.922,471.8 358.395,472.139 359.084,472.305C359.767,472.495 361.078,472.33 363.017,471.812C367.835,470.561 371.425,469.943 373.788,469.955C376.151,469.968 378.118,470.468 379.688,471.457C381.257,472.445 382.485,473.817 383.369,475.573C384.406,477.637 384.793,479.826 384.529,482.142C384.263,484.458 383.333,486.581 381.737,488.512C380.14,490.443 377.785,492.193 374.667,493.761C369.194,496.515 364.874,497.369 361.706,496.322C358.54,495.275 355.999,493.197 354.085,490.089Z" style="fill:white;fill-rule:nonzero;"/><path d="M376.519,451.457L385.551,444.951L392.919,455.179L402.789,448.071L395.421,437.842L404.494,431.307L425.547,460.538L416.475,467.073L407.958,455.249L398.089,462.358L406.606,474.182L397.573,480.687L376.519,451.457Z" style="fill:white;fill-rule:nonzero;"/><path d="M409.75,426.092L417.937,418.513L442.407,444.951L434.22,452.529L409.75,426.092Z" style="fill:white;fill-rule:nonzero;"/><path d="M442.097,414.308L445.139,410.735C445.467,410.348 445.982,409.495 446.677,408.171C447.042,407.514 447.147,406.812 446.987,406.063C446.829,405.315 446.45,404.686 445.851,404.176C444.966,403.422 444.046,403.124 443.095,403.281C442.142,403.439 441.007,404.291 439.691,405.838L436.521,409.561L442.097,414.308ZM451.162,436.713L423.735,413.358L435.762,399.233C437.994,396.613 439.922,394.803 441.55,393.801C443.178,392.799 444.961,392.391 446.899,392.578C448.838,392.765 450.679,393.603 452.425,395.09C453.949,396.386 454.985,397.828 455.535,399.417C456.087,401.006 456.222,402.661 455.941,404.38C455.76,405.475 455.278,406.775 454.492,408.28C455.687,407.558 456.652,407.109 457.381,406.935C457.872,406.815 458.737,406.772 459.978,406.807C461.217,406.843 462.123,406.93 462.693,407.071L474.135,409.734L465.981,419.31L453.742,416.704C452.167,416.353 451.028,416.265 450.321,416.438C449.375,416.688 448.575,417.2 447.917,417.973L447.279,418.721L458.411,428.2L451.162,436.713Z" style="fill:white;fill-rule:nonzero;"/><path d="M447.936,384.042L463.464,358.57L470.032,362.573L460.31,378.519L465.199,381.5L474.216,366.708L480.489,370.532L471.472,385.324L477.536,389.02L487.539,372.614L494.503,376.86L478.695,402.793L447.936,384.042Z" style="fill:white;fill-rule:nonzero;"/><path d="M44.244,232.392L45.799,221.895C47.528,222.028 48.908,221.844 49.935,221.343C51.601,220.525 52.654,219.073 53.097,216.991C53.427,215.436 53.318,214.16 52.768,213.165C52.218,212.168 51.462,211.568 50.501,211.363C49.587,211.169 48.685,211.396 47.793,212.044C46.901,212.692 45.826,214.406 44.564,217.186C42.476,221.732 40.325,224.834 38.113,226.491C35.898,228.164 33.413,228.706 30.657,228.12C28.846,227.735 27.248,226.847 25.86,225.454C24.473,224.063 23.543,222.215 23.07,219.912C22.597,217.61 22.75,214.623 23.53,210.953C24.488,206.45 26.056,203.196 28.233,201.188C30.41,199.18 33.373,198.341 37.122,198.671L35.54,209.061C33.895,208.996 32.62,209.325 31.713,210.044C30.806,210.764 30.189,211.892 29.862,213.43C29.593,214.697 29.659,215.707 30.059,216.462C30.46,217.218 31.044,217.676 31.814,217.841C32.375,217.96 32.935,217.802 33.497,217.368C34.07,216.955 34.762,215.829 35.572,213.991C37.608,209.45 39.372,206.263 40.859,204.427C42.347,202.591 43.967,201.37 45.721,200.763C47.475,200.156 49.313,200.056 51.235,200.466C53.495,200.946 55.445,202.014 57.085,203.67C58.727,205.325 59.801,207.379 60.31,209.832C60.818,212.285 60.71,215.218 59.983,218.63C58.709,224.625 56.673,228.528 53.874,230.345C51.077,232.161 47.866,232.845 44.244,232.392Z" style="fill:white;fill-rule:nonzero;"/><path d="M31.002,184.33L42.131,156.652L49.267,159.523L42.299,176.849L47.612,178.986L54.075,162.912L60.892,165.654L54.428,181.727L61.017,184.377L68.187,166.548L75.755,169.592L64.424,197.771L31.002,184.33Z" style="fill:white;fill-rule:nonzero;"/><path d="M77.307,140.319L64.225,136.801L73.1,147.02L77.307,140.319ZM85.132,142.505L78.413,153.208L82.516,157.858L76.472,167.483L53.162,136.862L59.617,126.579L97.324,134.268L91.127,144.141L85.132,142.505Z" style="fill:white;fill-rule:nonzero;"/><path d="M91.523,109.006L94.702,105.554C95.045,105.181 95.591,104.346 96.337,103.052C96.729,102.409 96.859,101.71 96.729,100.957C96.6,100.203 96.246,99.56 95.667,99.028C94.811,98.24 93.905,97.906 92.947,98.027C91.99,98.148 90.823,98.956 89.448,100.449L86.136,104.047L91.523,109.006ZM99.714,131.745L73.212,107.346L85.777,93.697C88.108,91.166 90.106,89.432 91.771,88.493C93.437,87.555 95.234,87.217 97.164,87.48C99.093,87.741 100.902,88.65 102.59,90.202C104.06,91.557 105.04,93.038 105.529,94.647C106.019,96.256 106.089,97.914 105.742,99.621C105.52,100.709 104.987,101.99 104.143,103.463C105.367,102.788 106.347,102.377 107.083,102.23C107.576,102.13 108.442,102.12 109.682,102.203C110.92,102.287 111.821,102.41 112.384,102.573L123.715,105.677L115.195,114.93L103.067,111.851C101.507,111.44 100.372,111.307 99.658,111.452C98.705,111.667 97.884,112.146 97.196,112.894L96.53,113.617L107.287,123.52L99.714,131.745Z" style="fill:white;fill-rule:nonzero;"/><path d="M135.995,78.059L145.555,74.528C146.682,77.107 147.237,79.552 147.219,81.865C147.202,84.178 146.642,86.336 145.539,88.341C144.436,90.346 142.597,92.321 140.022,94.267C136.899,96.628 134.004,98.103 131.338,98.693C128.673,99.281 125.757,98.977 122.592,97.778C119.427,96.579 116.497,94.198 113.801,90.632C110.208,85.879 108.71,81.269 109.309,76.804C109.907,72.339 112.52,68.359 117.146,64.862C120.766,62.125 124.165,60.706 127.342,60.604C130.52,60.502 133.758,61.586 137.056,63.857L130.534,71.528C129.599,70.861 128.826,70.438 128.22,70.26C127.209,69.956 126.206,69.892 125.211,70.07C124.216,70.248 123.273,70.672 122.385,71.344C120.373,72.865 119.442,74.84 119.594,77.268C119.692,79.082 120.713,81.275 122.657,83.845C125.064,87.031 127.198,88.848 129.058,89.298C130.918,89.748 132.723,89.312 134.475,87.987C136.173,86.703 137.096,85.256 137.244,83.645C137.393,82.034 136.976,80.172 135.995,78.059Z" style="fill:white;fill-rule:nonzero;"/><path d="M141.25,48.921L151.245,44.02L156.797,55.337L167.717,49.98L162.164,38.662L172.203,33.737L188.069,66.079L178.031,71.003L171.613,57.922L160.692,63.279L167.111,76.361L157.118,81.264L141.25,48.921Z" style="fill:white;fill-rule:nonzero;"/><path d="M228.376,41.509L222.128,29.489L220.596,42.937L228.376,41.509ZM232.053,48.754L219.623,51.035L218.969,57.201L207.79,59.252L214.607,21.376L226.55,19.185L246.365,52.175L234.899,54.278L232.053,48.754Z" style="fill:white;fill-rule:nonzero;"/><path d="M249.992,16.109L260.385,16.183L273.805,36.212L273.95,16.282L284.443,16.359L284.18,52.382L273.688,52.305L260.342,32.428L260.198,52.207L249.73,52.132L249.992,16.109Z" style="fill:white;fill-rule:nonzero;"/><path d="M307.789,28.128L303.914,47.426L306.587,47.963C308.868,48.421 310.542,48.494 311.606,48.182C312.671,47.869 313.603,47.136 314.403,45.986C315.202,44.835 315.886,42.846 316.454,40.019C317.205,36.276 317.109,33.592 316.166,31.966C315.222,30.339 313.337,29.243 310.51,28.674L307.789,28.128ZM298.481,17.938L314.694,21.194C317.89,21.835 320.385,22.788 322.178,24.05C323.971,25.313 325.348,26.884 326.307,28.765C327.266,30.644 327.819,32.719 327.965,34.987C328.112,37.256 327.943,39.594 327.458,42.003C326.701,45.778 325.683,48.619 324.407,50.526C323.129,52.434 321.587,53.937 319.779,55.035C317.97,56.135 316.145,56.741 314.3,56.855C311.779,57.017 309.545,56.903 307.602,56.513L291.388,53.257L298.481,17.938Z" style="fill:white;fill-rule:nonzero;"/><path d="M365.272,53.426L369.463,55.535C369.917,55.764 370.869,56.06 372.319,56.423C373.043,56.622 373.75,56.556 374.44,56.225C375.129,55.894 375.651,55.377 376.004,54.674C376.528,53.636 376.6,52.673 376.221,51.784C375.843,50.897 374.747,49.997 372.932,49.084L368.564,46.884L365.272,53.426ZM345.65,67.537L361.849,35.361L378.419,43.703C381.493,45.25 383.708,46.696 385.067,48.039C386.426,49.385 387.244,51.02 387.521,52.947C387.797,54.875 387.42,56.863 386.389,58.912C385.491,60.697 384.334,62.045 382.92,62.956C381.508,63.868 379.932,64.392 378.195,64.526C377.088,64.611 375.71,64.449 374.063,64.042C375.047,65.032 375.711,65.863 376.053,66.531C376.287,66.978 376.533,67.808 376.792,69.023C377.051,70.237 377.18,71.136 377.178,71.723L377.299,83.47L366.065,77.815L365.701,65.307C365.668,63.694 365.485,62.566 365.15,61.919C364.682,61.061 363.996,60.404 363.088,59.948L362.21,59.505L355.636,72.565L345.65,67.537Z" style="fill:white;fill-rule:nonzero;"/><path d="M401.552,56.836L425.407,74.749L420.788,80.9L405.854,69.685L402.417,74.263L416.269,84.667L411.857,90.541L398.004,80.138L393.74,85.817L409.106,97.356L404.207,103.88L379.92,85.641L401.552,56.836Z" style="fill:white;fill-rule:nonzero;"/><path d="M415.827,98.275L423.576,105.526C422.481,106.872 421.848,108.111 421.675,109.241C421.402,111.076 421.995,112.769 423.457,114.317C424.546,115.473 425.658,116.109 426.791,116.223C427.922,116.338 428.846,116.058 429.561,115.384C430.241,114.743 430.568,113.872 430.542,112.771C430.516,111.668 429.719,109.808 428.15,107.189C425.6,102.885 424.272,99.351 424.167,96.59C424.052,93.818 425.02,91.464 427.07,89.531C428.417,88.262 430.057,87.452 431.991,87.104C433.924,86.755 435.973,87.041 438.136,87.963C440.299,88.883 442.668,90.708 445.243,93.438C448.4,96.786 450.185,99.927 450.598,102.86C451.009,105.792 450.014,108.706 447.612,111.602L439.966,104.391C440.956,103.075 441.411,101.84 441.335,100.684C441.259,99.529 440.682,98.38 439.602,97.235C438.714,96.294 437.846,95.773 436.998,95.673C436.149,95.573 435.438,95.792 434.867,96.331C434.449,96.725 434.259,97.276 434.295,97.983C434.31,98.692 434.842,99.9 435.893,101.61C438.468,105.87 440.087,109.133 440.751,111.402C441.415,113.668 441.498,115.697 440.999,117.485C440.5,119.272 439.536,120.84 438.105,122.188C436.424,123.772 434.437,124.769 432.142,125.177C429.847,125.584 427.546,125.299 425.24,124.323C422.933,123.345 420.583,121.587 418.19,119.048C413.986,114.59 411.933,110.694 412.031,107.359C412.129,104.025 413.394,100.996 415.827,98.275Z" style="fill:white;fill-rule:nonzero;"/><path d="M458.369,146.532L461.233,156.311C458.583,157.259 456.106,157.645 453.8,157.467C451.493,157.291 449.378,156.583 447.455,155.346C445.531,154.106 443.687,152.137 441.922,149.434C439.782,146.156 438.509,143.167 438.105,140.466C437.701,137.767 438.206,134.879 439.62,131.804C441.033,128.729 443.611,125.969 447.353,123.525C452.342,120.268 457.044,119.091 461.458,119.996C465.87,120.9 469.662,123.78 472.833,128.636C475.313,132.435 476.495,135.925 476.378,139.101C476.261,142.278 474.957,145.434 472.464,148.568L465.259,141.533C465.99,140.645 466.465,139.906 466.685,139.312C467.057,138.324 467.19,137.328 467.082,136.324C466.973,135.319 466.614,134.349 466.005,133.417C464.625,131.304 462.719,130.241 460.286,130.224C458.469,130.197 456.213,131.064 453.514,132.826C450.171,135.009 448.21,137.012 447.634,138.838C447.057,140.662 447.369,142.493 448.569,144.331C449.733,146.115 451.113,147.136 452.71,147.394C454.307,147.652 456.194,147.366 458.369,146.532Z" style="fill:white;fill-rule:nonzero;"/><path d="M495.889,175.425L500.079,185.711L480.203,193.808C478.232,194.612 476.246,195.063 474.244,195.161C472.243,195.26 470.319,194.921 468.472,194.143C466.626,193.364 465.145,192.364 464.027,191.138C462.468,189.438 461.118,187.185 459.974,184.378C459.313,182.755 458.705,180.937 458.15,178.925C457.596,176.913 457.393,175.125 457.542,173.562C457.692,171.996 458.17,170.427 458.977,168.85C459.785,167.275 460.768,166.02 461.926,165.089C463.79,163.587 465.54,162.503 467.177,161.835L487.053,153.738L491.244,164.025L470.894,172.314C469.075,173.054 467.859,174.138 467.248,175.564C466.635,176.99 466.694,178.597 467.423,180.388C468.146,182.163 469.217,183.35 470.636,183.949C472.055,184.546 473.689,184.469 475.539,183.715L495.889,175.425Z" style="fill:white;fill-rule:nonzero;"/><path d="M503.822,198.967L509.787,228.195L502.251,229.734L498.517,211.435L492.907,212.58L496.371,229.554L489.172,231.024L485.708,214.05L478.75,215.469L482.592,234.298L474.598,235.929L468.526,206.17L503.822,198.967Z" style="fill:white;fill-rule:nonzero;"/></g></svg>