<svg xmlns="http://www.w3.org/2000/svg" height="24" viewBox="0 96 960 960" width="24"><path d="M158 636q-12 0-17.5-10.5T142 605l262-377q8-12 22-7.5t14 19.5v376q0 8-6 14t-14 6H158Zm115-80h87V431l-87 125Zm237 52q11-37 20.5-95t9.5-117q0-57-9-118t-20-104q-5-17 3-24t23 0q55 25 108 72.5t95 110q42 62.5 69.5 135T840 616q0 8-6 14t-14 6H530q-12 0-18-8t-2-20Zm94-52h148q-17-77-55.5-141T615 306q2 21 3.5 43.5T620 396q0 47-4.5 87T604 556ZM454 821q-20 16-44 25.5t-50 9.5q-26 0-50-9.5T266 821q-12-9-26-9t-26 9q-9 8-19.5 13.5T173 845q-24-17-42.5-40.5T99 753q-10-22 2.5-39.5T140 696h680q26 0 38.5 17.5T861 753q-13 28-31.5 51.5T787 845q-11-5-21.5-10.5T746 821q-12-9-26-9t-26 9q-20 16-44 25.5t-50 9.5q-26 0-50-9.5T506 821q-12-9-26-9t-26 9Zm-334 195q31 0 61-7.5t59-22.5q29 15 59 22.5t61 7.5q31 0 61-7.5t59-22.5q29 15 59 22.5t61 7.5q31 0 61-7.5t59-22.5q29 15 59 22.5t61 7.5q17 0 28.5-11.5T880 976q0-17-11.5-28.5T840 936q-26 0-51.5-6.5T740 909q-8-5-20-5t-20 5q-23 14-48.5 20.5T600 936q-26 0-51.5-6.5T500 909q-8-5-19.5-5t-20.5 5q-23 14-48.5 20.5T360 936q-26 0-51.5-6.5T260 909q-9-5-20-5t-20 5q-23 14-48.5 20.5T120 936q-17 0-28.5 11.5T80 976q0 17 11.5 28.5T120 1016Zm240-460Zm244 0Z"/></svg>