<svg xmlns="http://www.w3.org/2000/svg" height="24" viewBox="0 96 960 960" width="24"><path d="M240 936q-66 0-113-47T80 776q0-66 47-113t113-47q66 0 113 47t47 113q0 66-47 113t-113 47Zm480 0q-66 0-113-47t-47-113q0-66 47-113t113-47q66 0 113 47t47 113q0 66-47 113t-113 47Zm-480-80q33 0 56.5-23.5T320 776q0-33-23.5-56.5T240 696q-33 0-56.5 23.5T160 776q0 33 23.5 56.5T240 856Zm480 0q33 0 56.5-23.5T800 776q0-33-23.5-56.5T720 696q-33 0-56.5 23.5T640 776q0 33 23.5 56.5T720 856ZM480 536q-66 0-113-47t-47-113q0-66 47-113t113-47q66 0 113 47t47 113q0 66-47 113t-113 47Zm0-80q33 0 56.5-23.5T560 376q0-33-23.5-56.5T480 296q-33 0-56.5 23.5T400 376q0 33 23.5 56.5T480 456Zm0-80Zm240 400Zm-480 0Z"/></svg>