<svg xmlns="http://www.w3.org/2000/svg" height="24" viewBox="0 96 960 960" width="24"><path d="M82 536q15-152 128-256t270-104q83 0 155.5 31.5t127 86q54.5 54.5 86 127T880 576q0 82-31.5 155t-86 127.5q-54.5 54.5-127 86T480 976q-53 0-103-13t-95-39q-18-10-20-29t14-35q9-9 23-11t25 5q37 20 76 31t80 11q133 0 226.5-93.5T800 576q0-133-93.5-226.5T480 256q-123 0-213 80.5T162 536q-2 17-13.5 28.5T120 576q-17 0-28.5-12T82 536Zm38 260q-11-11-11-28t11-28l172-172q11-11 26.5-12t27.5 9l92 77 146-146h-64q-17 0-28.5-11.5T480 456q0-17 11.5-28.5T520 416h160q17 0 28.5 11.5T720 456v160q0 17-11.5 28.5T680 656q-17 0-28.5-11.5T640 616v-64L468 724q-11 11-26.5 12t-27.5-9l-92-77-146 146q-11 11-28 11t-28-11Zm320-206Z"/></svg>