<?xml version="1.0" encoding="UTF-8" standalone="no"?><!DOCTYPE svg PUBLIC "-//W3C//DTD SVG 1.1//EN" "http://www.w3.org/Graphics/SVG/1.1/DTD/svg11.dtd"><svg width="24px" height="24px" version="1.1" xmlns="http://www.w3.org/2000/svg" xmlns:xlink="http://www.w3.org/1999/xlink" xml:space="preserve" xmlns:serif="http://www.serif.com/" style="fill-rule:evenodd;clip-rule:evenodd;stroke-linejoin:round;stroke-miterlimit:2;"><g transform="matrix(-1,0,0,1,24,0)"><path d="M8,10.5C7.717,10.5 7.479,10.404 7.288,10.212C7.096,10.021 7,9.783 7,9.5C7,9.217 7.096,8.979 7.288,8.788C7.479,8.596 7.717,8.5 8,8.5L11,8.5C11.283,8.5 11.521,8.596 11.713,8.788C11.904,8.979 12,9.217 12,9.5C12,9.783 11.904,10.021 11.713,10.212C11.521,10.404 11.283,10.5 11,10.5L8,10.5ZM9.5,16C7.683,16 6.146,15.371 4.888,14.112C3.629,12.854 3,11.317 3,9.5C3,7.683 3.629,6.146 4.888,4.887C6.146,3.629 7.683,3 9.5,3C11.317,3 12.854,3.629 14.113,4.887C15.371,6.146 16,7.683 16,9.5C16,10.233 15.883,10.925 15.65,11.575C15.417,12.225 15.1,12.8 14.7,13.3L20.3,18.9C20.483,19.083 20.575,19.317 20.575,19.6C20.575,19.883 20.483,20.117 20.3,20.3C20.117,20.483 19.883,20.575 19.6,20.575C19.317,20.575 19.083,20.483 18.9,20.3L13.3,14.7C12.8,15.1 12.225,15.417 11.575,15.65C10.925,15.883 10.233,16 9.5,16ZM9.5,14C10.75,14 11.813,13.563 12.688,12.688C13.563,11.813 14,10.75 14,9.5C14,8.25 13.563,7.188 12.688,6.313C11.813,5.438 10.75,5 9.5,5C8.25,5 7.188,5.438 6.313,6.313C5.438,7.188 5,8.25 5,9.5C5,10.75 5.438,11.813 6.313,12.688C7.188,13.563 8.25,14 9.5,14Z" style="fill-rule:nonzero;"/></g></svg>